<svg id="Layer_1" data-name="Layer 1" xmlns="http://www.w3.org/2000/svg" viewBox="0 0 202.49 218.71"><defs><style>.cls-1{fill:#0371a0;}.cls-2{fill:#1f8dc9;}.cls-3{fill:#e4e9ed;}.cls-4{fill:#e8f1f8;}.cls-5{fill:#d7a928;}</style></defs><g id="pez_2" data-name="pez 2"><path class="cls-1" d="M68.8,53.56C59.18,66,61.07,74.46,59.39,86.64c-.38,2.8-5.61,1.1-10.55-4-4.33-4.48-5.07-7.86-4.16-9.06s8.46-.11,8.46.56-4.89-.22-5.39.9c-.39.91,1.1,3.71,2.86,5.4,3,2.83,5.09,4.57,5.33,1.51.39-4.87.23-12.62,3.22-20.91,4.43-12.31,13.45-19.69,25.13-21.89,7.55-1.43,15.21-.37,22.69,1.69,1.63.29-24.26-4.92-38.18,12.76"/><path class="cls-2" d="M107,40.8h0c-1.52-.27-20.77-3.11-34.07,8.47,7.57-5.57,17.62-7.72,28.46-5.48,1.28.26,1.63.64,1.54,1.68-.65,6.9-4.8,14.61-14.76,20.9-8.35,5.21-24.2,9.2-24.12,10.12,0,.73,15.22-3.9,21.41-6.22,16.21-6.49,21.75-16.14,22.66-27.6C108.13,42,108.38,41.19,107,40.8Z"/></g><g id="pez3"><path class="cls-1" d="M97.24,158.94c-9.69,5.27-11.9,10.77-17.8,17.69-1.38,1.58-5.58-1.92-6.48-7-.77-4.45.39-6.65,1.44-6.94s5.12,2.92,4.88,3.29-2.88-1.6-3.67-1.18c-.62.35-.94,2.6-.53,4.31.68,2.9,1.83,5.71,3.88,3.34,2.33-2.72,5.27-7.45,10.05-11.58,7.11-6.15,14-8.54,21.08-8.12,4.58.28,8.73,1.83,13,3.73.47.45-12.67-4.88-25.81,2.5"/><path class="cls-2" d="M123.05,156.44c.42.41-10.18-3.87-21.88.65a26.31,26.31,0,0,1,18.06,1c.73.29.9.58.68,1.29-1.42,4.66-5.26,9.89-13.69,12.37-7.07,2.26-19.48-.13-19.71.3-.29.65,11.89,2.36,16.85,1.8,13.26-1.2,18.18-8.3,20.12-16C123.6,157.32,123.84,156.8,123.05,156.44Z"/></g><g id="pez1"><path class="cls-3" d="M135.34,133.76c28.81-8.37,44.76-26.66,52.35-44.31,1.15-2.66.71-3.86-1.86-5.31-17.34-9.79-35.82-12.85-53.9-9.76C91.11,90.66,69.82,136.92,69.81,137,70.64,134.85,111.27,141,135.34,133.76Z"/><path class="cls-4" d="M135.34,133.76c28.81-8.37,44.76-26.66,52.35-44.31,1.15-2.66.71-3.86-1.86-5.31A81.6,81.6,0,0,0,146,73.23c-30.62,11.29-45.72,53.57-49.06,64.13C109.56,137.6,124.22,137.11,135.34,133.76Z"/><path class="cls-1" d="M161.52,88.69c.58,3.17-.15,5.65-3.19,6.6a4.53,4.53,0,0,1-6-3.08c-1-2.88.13-5.39,3.13-6.32,2.72-.83,4.8.51,6.05,2.8"/><path class="cls-3" d="M31.67,114.81h0a3.62,3.62,0,0,0-.36.42c-1.6,2.36-1.52,10.05.34,15.72,2.18,6.64,4.8,13.09,8,14.15-4.94-17.84,4.69-27.94,4.7-28C43.68,118.55,34.1,112.77,31.67,114.81Z"/><path class="cls-1" d="M200.81,79.46C186.32,70,171,62.66,153.54,61c-27-2.6-53.69,7.66-77.28,33.08-15.89,17.12-24.17,36.06-30.95,47.21-2.07,3.41-4,4.41-5.68,3.84-3.19-1.06-5.81-7.51-8-14.15-1.86-5.67-1.94-13.36-.34-15.72a1.89,1.89,0,0,1,.36-.42h0c2.43-2,12,3.74,12.66,2.35h0c.73-1.57-14.3-10.63-17.69-9.36-3.42,1.74-6.05,10.48-1.63,26.29,5.09,18.12,18.9,29,22.89,22.63,17.41-28,23.12-50,57.44-71.79C153.81,54.09,203.53,81.21,200.81,79.46Z"/><path class="cls-2" d="M200.9,79.52c.74.66-38.94-20.14-81.68-1.92,22-7.39,45.17-5.56,66.61,6.54,2.57,1.45,3,2.65,1.86,5.31-7.59,17.65-23.54,35.94-52.35,44.31C111.27,141,70.63,134.85,69.81,137s39.11,5.9,55.57,4.66c43.76-3.3,64.25-27.09,76.2-56.66C202.3,83.17,203.49,81.26,200.9,79.52Z"/></g><path class="cls-5" d="M4.65,83a111.75,111.75,0,0,0,6.92,66.13,107.53,107.53,0,0,0,17.79,28,110.1,110.1,0,0,0,11.91,11.55c2.1,1.8,4.33,3.45,6.55,5.09l3.44,2.33c1.15.77,2.35,1.45,3.52,2.18a107,107,0,0,0,63.75,14.81A110.2,110.2,0,0,0,135,210.44c1.35-.34,2.72-.65,4.06-1l4-1.21,4-1.38c1.32-.47,2.61-1,3.92-1.54a115.28,115.28,0,0,0,29-17.37,101,101,0,0,1-27.77,20.16A103.37,103.37,0,0,1,119,217.92c-1.45.15-2.89.35-4.35.46l-4.36.28c-2.92,0-5.84.12-8.76-.07a103,103,0,0,1-17.39-2.17,109.9,109.9,0,0,1-16.83-5,113.54,113.54,0,0,1-15.75-7.79A107.39,107.39,0,0,1,24.9,181a113.11,113.11,0,0,1-10.15-14.29c-.73-1.27-1.51-2.51-2.19-3.8l-2-3.89c-1.22-2.65-2.45-5.3-3.47-8A102.62,102.62,0,0,1,4.65,83Z"/><path class="cls-5" d="M190.3,42a152.62,152.62,0,0,0-14.23-12.31l-3.75-2.76-3.89-2.55-1-.64-1-.59-2-1.18-2-1.19-2.05-1.07c-2.69-1.51-5.5-2.76-8.27-4.08-2.86-1.14-5.66-2.38-8.58-3.32a107,107,0,0,0-17.75-4.61c-.75-.13-1.5-.31-2.25-.4L121.31,7c-1.52-.18-3-.45-4.56-.52l-4.58-.37L107.58,6A113.1,113.1,0,0,0,89.21,7.09,128.33,128.33,0,0,0,53.53,17.84,91.52,91.52,0,0,1,88.33,2.27,96.35,96.35,0,0,1,107.56,0a99,99,0,0,1,19.36,1.49c1.59.31,3.19.57,4.77.94l4.72,1.19c1.57.4,3.09,1,4.64,1.44.77.25,1.55.48,2.31.75l2.27.89c3,1.11,6,2.52,8.88,3.9L158.77,13l1.06.59,1,.64,2,1.28a95.46,95.46,0,0,1,15.14,11.89A92.66,92.66,0,0,1,190.3,42Z"/></svg>